# xmcd CD database file
#
# Track frame offsets:
#	150
#	20204
#	36588
#	52246
#	69878
#	87405
#	104836
#	119851
#	133191
#	145201
#	160185
#	174693
#	188442
#	205048
#	221043
#	234436
#	263524
#
# Disc length: 3967 seconds
#
# Revision: 5
# Processed by: cddbd v1.5.2PL0 Copyright (c) Steve Scherf et al.
# Submitted via: CDex 1.51
#
DISCID=090f7d11
DTITLE=Johnny Cash - American IV: The Man Comes Around
DYEAR=2003
DGENRE=Blues
TTITLE0=The Man Comes Around [JC]
TTITLE1=Hurt
TTITLE2=Give My Love To Rose [JC]
TTITLE3=Bridge Over Troubled Water [ft F apple]
TTITLE4=I Hung My Head
TTITLE5=First Time Ever I Saw Your Face
TTITLE6=Personal Jesus
TTITLE7=In My Life
TTITLE8=Sam Hall [arr JC]
TTITLE9=Danny Boy [arr JC]
TTITLE10=Desperado [ft D Henley]
TTITLE11=I'm So Lonesome I Could Cry [ft N Cave]
TTITLE12=Tear Stained Letter [JC]
TTITLE13=Streets Of Laredo [arr JC]
TTITLE14=We'll Meet Again [ft The Whole Cash Gang]
TTITLE15=Big Iron
TTITLE16=Hurt - Video (mov)
EXTD=bloody brilliant YEAR: 2003
EXTT0=
EXTT1=
EXTT2=
EXTT3=
EXTT4=
EXTT5=
EXTT6=
EXTT7=
EXTT8=
EXTT9=
EXTT10=
EXTT11=
EXTT12=
EXTT13=
EXTT14=
EXTT15=
EXTT16=
PLAYORDER=
